HIERARCHY
ROOT Hips
{
  OFFSET -32.5998 29.0326 120.673
  CHANNELS 6 Xposition Yposition Zposition Zrotation Xrotation Yrotation
  JOINT LeftUpLeg
  {
    OFFSET 8.64259 1.95398 -2.38835
    CHANNELS 3 Zrotation Xrotation Yrotation
    JOINT LeftLeg
    {
      OFFSET 43.7702 0 0
      CHANNELS 3 Zrotation Xrotation Yrotation
      JOINT LeftFoot
      {
        OFFSET 40.6238 0 0
        CHANNELS 3 Zrotation Xrotation Yrotation
        JOINT LeftToeBase
        {
          OFFSET 12.7242 0 0
          CHANNELS 3 Zrotation Xrotation Yrotation
          End Site
          {
            OFFSET 0 0 0
          }
        }
      }
    }
  }
  JOINT RightUpLeg
  {
    OFFSET -8.2249 1.95398 -2.59336
    CHANNELS 3 Zrotation Xrotation Yrotation
    JOINT RightLeg
    {
      OFFSET 43.5653 0 0
      CHANNELS 3 Zrotation Xrotation Yrotation
      JOINT RightFoot
      {
        OFFSET 40.6238 0 0
        CHANNELS 3 Zrotation Xrotation Yrotation
        JOINT RightToeBase
        {
          OFFSET 12.7242 0 0
          CHANNELS 3 Zrotation Xrotation Yrotation
          End Site
          {
            OFFSET 0 0 0
          }
        }
      }
    }
  }
  JOINT Spine
  {
    OFFSET 0.165834 0.87714 6.61349
    CHANNELS 3 Zrotation Xrotation Yrotation
    JOINT Spine1
    {
      OFFSET 7.38963 1.71661e-005 0
      CHANNELS 3 Zrotation Xrotation Yrotation
      JOINT Spine2
      {
        OFFSET 11.9445 1.14441e-005 0
        CHANNELS 3 Zrotation Xrotation Yrotation
        JOINT Spine3
        {
          OFFSET 14.7254 4.19617e-005 0
          CHANNELS 3 Zrotation Xrotation Yrotation
          JOINT Spine4
          {
            OFFSET 10.9679 0 0
            CHANNELS 3 Zrotation Xrotation Yrotation
            JOINT RightShoulder
            {
              OFFSET 2.46616 -1.6653 3.69651
              CHANNELS 3 Zrotation Xrotation Yrotation
              JOINT RightArm
              {
                OFFSET 13.0012 0 0
                CHANNELS 3 Zrotation Xrotation Yrotation
                JOINT RightForeArm
                {
                  OFFSET 28.7848 1.62311e-005 0
                  CHANNELS 3 Zrotation Xrotation Yrotation
                  JOINT RightHand
                  {
                    OFFSET 26.5688 1.62095e-005 0
                    CHANNELS 3 Zrotation Xrotation Yrotation
                    End Site
                    {
                      OFFSET 0 0 0
                    }
                  }
                }
              }
            }
            JOINT LeftShoulder
            {
              OFFSET 2.38034 -1.29275 -3.7523
              CHANNELS 3 Zrotation Xrotation Yrotation
              JOINT LeftArm
              {
                OFFSET 16.3182 6.07031e-005 0
                CHANNELS 3 Zrotation Xrotation Yrotation
                JOINT LeftForeArm
                {
                  OFFSET 27.0901 0 0
                  CHANNELS 3 Zrotation Xrotation Yrotation
                  JOINT LeftHand
                  {
                    OFFSET 24.5451 1.51738e-005 0
                    CHANNELS 3 Zrotation Xrotation Yrotation
                    End Site
                    {
                      OFFSET 0 0 0
                    }
                  }
                }
              }
            }
            JOINT Neck
            {
              OFFSET 5.0226 -0.0266342 0
              CHANNELS 3 Zrotation Xrotation Yrotation
              JOINT Head
              {
                OFFSET 6.69364 2.86102e-005 0
                CHANNELS 3 Zrotation Xrotation Yrotation
                End Site
                {
                  OFFSET 0 0 0
                }
              }
            }
          }
        }
      }
    }
  }
}
MOTION
Frames:	6
Frame Time:	0.0416667
90.1957 92.7096 111.388 -89.8051 46.3635 -87.5286 -169.722 12.6619 89.133 -46.4128 17.6028 -2.54326 90.7544 20.0624 -0.795381 25.1585 -0.886393 -1.35561 177.832 22.3259 90.1038 -79.4399 -5.77037 -4.94828 72.9676 -6.79578 -5.34004 10.31 5.08044 8.23083 -0.352476 8.25631 -90.5629 10.3611 -0.959851 -1.03275 -1.30982 -1.00438 -0.989517 -23.8436 -0.605123 -1.27345 -3.83098 -0.605143 -1.27346 93.7599 -27.1012 -100.04 30.0725 -8.21285 9.78849 -49.0077 23.2984 -104.195 -6.67432 -0.44302 2.33382 -87.8744 -48.412 81.6313 -9.76676 1.26267 -10.168 30.339 -19.1834 -113.154 -9.83739 0.200743 -8.3977 22.7513 5.60217 -4.85778 -5.7453 6.90636 4.16636 
96.5299 93.4421 118.221 -94.2568 48.5632 -85.9771 -170.074 17.2311 87.4887 -47.5103 16.6028 -3.37226 84.2394 15.5118 0.757599 21.9277 -1.85844 -2.10037 176.746 4.38949 85.0299 -71.9509 -11.4199 -6.94687 67.1798 -3.51407 -4.49966 13.2167 3.49829 9.27874 0.48345 8.24757 -90.3267 10.3784 0.813631 -0.719919 -1.29253 0.781171 -0.755035 -23.8286 0.992346 -0.442098 -3.81593 0.99237 -0.44209 92.7393 -25.6342 -102.724 29.0552 2.16202 1.66972 -47.8475 21.9226 -108.181 -4.80991 -0.199987 0.00185521 -86.8188 -51.1789 83.6787 -18.0921 10.6666 11.0502 34.9203 -22.6959 -110.905 -14.6188 0.655491 -11.3143 15.1125 3.01071 -2.6105 -2.88981 3.65629 1.99626 
103.244 94.6435 125.128 -96.0737 51.1837 -86.5695 -170.674 21.6468 85.6843 -43.4005 15.4432 -4.54482 74.8356 9.02272 2.16969 19.6744 -1.74093 -4.12797 174.94 -7.63105 82.4476 -59.2253 -21.7311 -10.0036 62.7927 -1.05612 -1.93756 16.6594 2.40354 8.68994 1.41017 8.15362 -90.0558 10.5735 2.78305 -0.361046 -1.09455 2.76447 -0.483283 -23.6533 2.76279 0.492728 -3.64061 2.7628 0.492729 92.8801 -21.9566 -103.748 29.9808 9.22962 -5.6064 -40.0865 18.3807 -112.758 -9.3399 -0.721311 3.9902 -85.3631 -49.1059 85.5689 -23.6536 17.7686 27.6229 27.4527 -23.889 -115.46 -13.0821 0.649723 -12.2548 10.6825 0.261212 -2.50436 -1.89405 0.84283 0.654082 
111.171 95.1267 132.684 -93.0547 52.5169 -89.7995 -171.181 27.7668 86.1939 -35.5006 20.6734 -5.9533 65.0542 2.58449 2.53273 18.9391 -3.08375 -1.96196 174.305 -12.5258 82.3243 -48.3637 -32.9464 -11.819 61.7361 -1.03048 -2.22774 20.2077 0.802734 9.50976 2.00874 8.02394 -89.8948 10.8345 4.04826 -0.169615 -0.830109 4.03685 -0.347925 -23.4139 3.91176 1.05682 -3.40127 3.91175 1.05682 94.4812 -16.9012 -101.9 31.5967 13.023 -12.8144 -37.764 18.0474 -116.527 -9.64059 -0.722863 3.64511 -85.9708 -45.295 84.0461 -26.5853 19.6035 36.7511 25.0431 -25.1111 -118.809 -10.9383 0.488823 -12.1395 11.5376 -1.79443 -2.63259 -3.26084 -1.12108 0.454713 
120.245 93.519 140.821 -87.1218 52.001 -94.1242 -170.37 37.4118 87.6379 -38.1219 30.5322 -7.14703 66.6315 3.98383 0.848101 19.0495 -7.06006 5.56269 176.055 -10.8558 86.1316 -39.0657 -29.304 -9.67072 67.2084 -5.20128 -3.66034 33.07 -3.99067 10.2851 1.89542 7.7874 -89.832 11.3043 3.85027 -0.0453248 -0.3609 3.84454 -0.215001 -22.9391 3.68562 1.11555 -2.92649 3.68563 1.11554 95.0688 -14.7379 -101.235 31.773 19.923 -18.5859 -29.0716 14.2022 -123.225 -14.5606 -1.51201 6.88353 -86.9632 -42.3663 81.9315 -29.0726 18.1814 40.4725 25.5517 -26.7151 -121.885 -9.88808 0.470087 -12.9149 15.7854 -1.70132 -2.6035 -6.01014 -0.954049 0.819273 
129.63 90.568 148.987 -88.8896 50.5332 -91.5978 -165.13 44.1423 87.6199 -59.0359 26.8498 -6.10816 74.6992 9.23411 2.2617 18.7377 -5.86229 3.03685 177.234 -6.6084 90.0691 -41.6283 -16.5049 -7.40222 82.2762 -15.4168 -3.50655 46.6415 -8.09286 5.17495 1.38176 8.0429 -90.1009 10.7937 2.70488 -0.450884 -0.874531 2.68241 -0.569575 -23.432 2.71525 0.383512 -3.41939 2.71522 0.383501 95.3599 -15.4869 -100.177 32.1551 22.6884 -21.9791 -25.051 12.8844 -128.442 -18.711 -1.98416 7.18631 -86.9025 -44.8084 82.4797 -28.2374 19.9432 35.4586 27.3851 -28.2126 -122.093 -11.7951 0.745196 -14.4151 18.4096 0.152679 -1.67607 -5.21162 0.622164 1.69605 
